<svg width="622.000000" height="124.000000" viewBox="0 0 622 124" fill="none" xmlns="http://www.w3.org/2000/svg" xmlns:xlink="http://www.w3.org/1999/xlink">
    <desc>
        Created with Pixso.
    </desc>
    <defs>
        <clipPath id="clip0_3">
            <rect id="svg" width="622.000000" height="124.000000" fill="white"/>
        </clipPath>
    </defs>
    <g clip-path="url(#clip0_3)">
        <path id="Application" d="M131.82 92.1406C132.723 88.5898 133.684 84.418 134.551 80.668L134.738 80.668C135.699 84.3242 136.613 88.5898 137.574 92.1406L138.348 95.1641L131.047 95.1641L131.82 92.1406ZM118.613 110L127.355 110L129.418 101.797L139.977 101.797L142.039 110L151.062 110L139.977 74.2344L129.699 74.2344L118.613 110ZM154.137 119.938L162.68 119.938L162.68 112.109L162.387 107.844C164.215 109.66 166.418 110.668 168.727 110.668C174.586 110.668 180.2 105.301 180.2 95.8906C180.2 87.4883 176.075 82.0156 169.547 82.0156C166.711 82.0156 164.028 83.4102 161.86 85.332L161.719 85.332L161.098 82.6836L154.137 82.6836L154.137 119.938ZM166.711 103.66C165.41 103.66 164.028 103.285 162.68 102.078L162.68 91.2852C164.121 89.6914 165.41 88.9766 167.004 88.9766C170.028 88.9766 171.41 91.2266 171.41 96.0312C171.41 101.504 169.301 103.66 166.711 103.66ZM185.721 119.938L194.264 119.938L194.264 112.109L193.971 107.844C195.799 109.66 198.002 110.668 200.311 110.668C206.17 110.668 211.784 105.301 211.784 95.8906C211.784 87.4883 207.659 82.0156 201.131 82.0156C198.295 82.0156 195.612 83.4102 193.444 85.332L193.303 85.332L192.682 82.6836L185.721 82.6836L185.721 119.938ZM198.295 103.66C196.994 103.66 195.612 103.285 194.264 102.078L194.264 91.2852C195.705 89.6914 196.994 88.9766 198.588 88.9766C201.612 88.9766 202.994 91.2266 202.994 96.0312C202.994 101.504 200.885 103.66 198.295 103.66ZM225.075 110.668C226.996 110.668 228.391 110.34 229.305 109.953L228.297 103.66C227.817 103.766 227.629 103.766 227.336 103.766C226.668 103.766 225.848 103.227 225.848 101.41L225.848 71.6445L217.305 71.6445L217.305 101.117C217.305 106.836 219.227 110.668 225.075 110.668ZM233.241 110L241.784 110L241.784 82.6836L233.241 82.6836L233.241 110ZM237.507 78.8984C240.343 78.8984 242.264 77.1641 242.264 74.4805C242.264 71.8438 240.343 70.1094 237.507 70.1094C234.636 70.1094 232.761 71.8438 232.761 74.4805C232.761 77.1641 234.636 78.8984 237.507 78.8984ZM260.696 110.668C263.579 110.668 267.036 109.812 269.719 107.457L266.403 101.844C265.02 102.945 263.379 103.766 261.657 103.766C258.34 103.766 255.844 100.883 255.844 96.3242C255.844 91.8125 258.2 88.9297 261.997 88.9297C263.145 88.9297 264.2 89.3633 265.454 90.3711L269.426 84.9453C267.364 83.1641 264.774 82.0156 261.469 82.0156C253.829 82.0156 247.114 87.3008 247.114 96.3242C247.114 105.395 253.02 110.668 260.696 110.668ZM280.763 110.668C283.787 110.668 286.329 109.285 288.579 107.27L288.826 107.27L289.4 110L296.361 110L296.361 94.4961C296.361 85.9531 292.376 82.0156 285.322 82.0156C281.044 82.0156 277.165 83.457 273.556 85.6133L276.533 91.2266C279.275 89.6914 281.525 88.8359 283.693 88.8359C286.47 88.8359 287.619 90.125 287.818 92.3398C277.165 93.4883 272.654 96.6055 272.654 102.371C272.654 106.93 275.724 110.668 280.763 110.668ZM283.693 104.047C281.912 104.047 280.763 103.285 280.763 101.691C280.763 99.7812 282.486 98.1875 287.818 97.5195L287.818 101.891C286.564 103.227 285.415 104.047 283.693 104.047ZM312.627 110.668C315.416 110.668 317.385 110.094 318.826 109.66L317.479 103.473C316.811 103.707 315.85 104 314.983 104C312.967 104 311.526 102.805 311.526 99.7812L311.526 89.3633L317.959 89.3633L317.959 82.6836L311.526 82.6836L311.526 75.4414L304.471 75.4414L303.51 82.6836L299.291 83.0234L299.291 89.3633L302.983 89.3633L302.983 99.875C302.983 106.309 305.772 110.668 312.627 110.668ZM323.241 110L331.784 110L331.784 82.6836L323.241 82.6836L323.241 110ZM327.507 78.8984C330.343 78.8984 332.264 77.1641 332.264 74.4805C332.264 71.8438 330.343 70.1094 327.507 70.1094C324.636 70.1094 322.761 71.8438 322.761 74.4805C322.761 77.1641 324.636 78.8984 327.507 78.8984ZM350.508 110.668C357.411 110.668 363.844 105.395 363.844 96.3242C363.844 87.3008 357.411 82.0156 350.508 82.0156C343.547 82.0156 337.114 87.3008 337.114 96.3242C337.114 105.395 343.547 110.668 350.508 110.668ZM350.508 103.766C347.286 103.766 345.844 100.883 345.844 96.3242C345.844 91.8125 347.286 88.9297 350.508 88.9297C353.672 88.9297 355.114 91.8125 355.114 96.3242C355.114 100.883 353.672 103.766 350.508 103.766ZM369.225 110L377.768 110L377.768 91.7656C379.397 90.1719 380.557 89.3164 382.467 89.3164C384.635 89.3164 385.643 90.3711 385.643 94.1562L385.643 110L394.186 110L394.186 93.1016C394.186 86.293 391.643 82.0156 385.69 82.0156C381.987 82.0156 379.209 83.8906 376.948 86.0938L376.807 86.0938L376.186 82.6836L369.225 82.6836L369.225 110Z" fill-rule="evenodd" fill="#F48024"/>
        <path id="path" d="M142.7 39.742L135.526 39.107C129.895 38.654 127.716 36.383 127.716 32.568C127.716 28.028 131.167 25.211 137.706 25.211C142.338 25.211 146.424 26.302 149.606 28.754L153.875 24.485C149.875 21.216 144.156 19.673 137.8 19.673C128.264 19.673 121.361 24.573 121.361 32.75C121.361 40.106 125.994 44.011 134.712 44.738L142.068 45.373C147.244 45.828 149.515 48.007 149.515 51.912C149.515 57.18 144.974 59.812 137.615 59.812C132.074 59.812 127.261 58.359 123.715 54.635L119.355 58.995C124.26 63.717 130.163 65.443 137.701 65.443C148.508 65.443 155.865 60.443 155.865 51.821C155.865 43.463 150.511 40.47 142.7 39.742ZM198.613 19.671C191.444 19.671 186.928 21.084 182.971 26.094C182.917 26.163 187.261 30.386 187.261 30.386C189.894 26.663 192.8 25.302 198.521 25.302C206.695 25.302 209.965 28.571 209.965 35.109L209.965 39.377L196.527 39.377C186.537 39.377 181.089 44.464 181.089 52.277C180.984 55.6263 182.189 58.8845 184.449 61.359C187.265 64.266 190.897 65.446 197.072 65.446C203.066 65.446 206.336 64.266 209.972 60.632L209.972 64.9L216.511 64.9L216.511 34.565C216.511 24.848 210.604 19.671 198.613 19.671ZM209.969 49.1C209.969 52.825 209.242 55.368 207.698 56.82C204.883 59.545 201.523 59.82 197.709 59.82C190.625 59.82 187.445 57.367 187.445 52.19C187.445 47.013 190.715 44.29 197.437 44.29L209.969 44.29L209.969 49.1ZM242.118 25.489C246.386 25.489 249.018 26.76 252.38 30.483C252.38 30.483 256.758 26.228 256.722 26.19C252.137 21.285 248.245 19.677 242.122 19.677C230.86 19.677 222.322 27.305 222.322 42.562C222.322 57.819 230.858 65.449 242.122 65.449C248.297 65.449 252.202 63.813 256.834 58.819L252.384 54.55C249.024 58.274 246.39 59.636 242.122 59.636C238.033 59.7994 234.139 57.8861 231.769 54.55C229.68 51.644 228.863 48.193 228.863 42.562C228.863 36.931 229.68 33.48 231.769 30.574C234.138 27.2374 238.029 25.3243 242.118 25.489ZM298.122 20.155L289.97 20.155L269.71 39.875L269.741 0.236L263.2 0.236L263.2 64.9L269.74 64.9L269.709 48.591L277.64 40.632L292.628 64.9L300.71 64.9L282.17 36.1L298.122 20.155ZM328.335 19.055C321.635 19.055 317.108 21.666 314.322 24.625C310.231 28.89 309.187 34.025 309.187 42.207C309.187 50.475 310.231 55.607 314.322 59.876C317.108 62.835 321.633 65.447 328.335 65.447C335.037 65.447 339.651 62.835 342.435 59.876C346.526 55.611 347.571 50.476 347.571 42.207C347.571 34.026 346.526 28.89 342.435 24.625C339.651 21.666 335.035 19.055 328.335 19.055ZM333.645 53.261C332.226 54.6312 330.305 55.3549 328.335 55.261C326.391 55.355 324.497 54.6295 323.113 53.261C320.762 50.911 320.502 46.908 320.502 42.207C320.502 37.506 320.762 33.591 323.113 31.241C324.497 29.8722 326.391 29.1466 328.335 29.241C330.305 29.1466 332.227 29.8704 333.645 31.241C335.994 33.591 336.256 37.507 336.256 42.207C336.256 46.907 335.994 50.907 333.645 53.261ZM377.7 19.575L368.562 47.6L359.336 19.573L347.41 19.573L364.123 64.92L373 64.92L389.623 19.573L377.7 19.575ZM408.873 19.053C397.124 19.053 389.116 27.408 389.116 42.205C389.116 60.571 399.387 65.445 410.092 65.445C418.274 65.445 422.714 62.92 427.326 58.306L420.451 51.606C417.578 54.479 415.14 55.871 410.179 55.871C403.825 55.871 400.257 51.606 400.257 45.771L428.631 45.771L428.631 40.726C428.631 28.279 421.494 19.053 408.873 19.053ZM400.257 38.027C400.274 36.3485 400.629 34.6907 401.302 33.153C402.728 30.2748 405.662 28.4539 408.874 28.4539C412.087 28.4539 415.021 30.2748 416.447 33.153C417.118 34.6914 417.473 36.3488 417.491 38.027L400.257 38.027ZM445.322 23.927L445.322 19.575L434.267 19.575L434.267 64.922L445.582 64.922L445.582 37.593C445.582 31.848 449.412 29.236 452.894 29.236C455.189 29.1567 457.391 30.1404 458.864 31.902L467.43 23.318C464.296 20.184 461.163 19.053 456.724 19.053C452.408 19.0019 448.267 20.7712 445.322 23.927ZM470.941 14.848L470.941 64.876L482.255 64.876L482.255 29.122L490.611 29.122L490.611 20.506L482.255 20.506L482.255 15.545C482.255 12.934 483.562 11.454 486.255 11.454L490.607 11.454L490.607 1.881L484.167 1.881C474.939 1.881 470.941 8.408 470.941 14.848ZM537.191 19.048C530.491 19.048 525.963 21.659 523.178 24.618C519.088 28.883 518.043 34.018 518.043 42.2C518.043 50.468 519.088 55.6 523.178 59.869C525.963 62.828 530.489 65.44 537.191 65.44C543.893 65.44 548.507 62.828 551.291 59.869C555.381 55.604 556.426 50.469 556.426 42.2C556.426 34.019 555.381 28.883 551.291 24.618C548.506 21.659 543.891 19.048 537.191 19.048ZM542.501 53.254C541.082 54.6242 539.161 55.3479 537.191 55.254C535.247 55.348 533.353 54.6225 531.969 53.254C529.619 50.904 529.358 46.901 529.358 42.2C529.358 37.499 529.619 33.584 531.969 31.234C533.353 29.8652 535.247 29.1396 537.191 29.234C539.161 29.1396 541.083 29.8634 542.501 31.234C544.85 33.584 545.112 37.5 545.112 42.2C545.112 46.9 544.85 50.9 542.501 53.254ZM609.883 19.57L602.573 47.6L593.26 19.575L584.993 19.575L575.765 47.6L568.455 19.573L556.444 19.573L570.37 64.92L579.683 64.92L589.17 36.46L598.657 64.92L607.97 64.92L621.809 19.573L609.883 19.57ZM507.3 51.257L507.3 1.881L495.989 1.881L495.989 51.953C495.989 58.394 499.907 64.922 509.219 64.922L515.659 64.922L515.659 55.347L511.308 55.347C508.436 55.347 507.3 53.955 507.3 51.257ZM174 27.246L180.046 21.2L167.666 21.2L167.666 6.5L161.127 6.5L161.127 52.912C161.127 59.541 164.941 64.9 172.57 64.9L177.2 64.9L177.2 59.269L173.75 59.269C169.573 59.269 167.666 56.816 167.666 52.73L167.666 27.246L174 27.246Z" fill-rule="nonzero" fill="#1E1B1D"/>
        <path id="polygon" d="M88 80L99 80L99 124L0 124L0 80L11 80L11 113L88 113L88 80Z" fill-rule="evenodd" fill="#BBBBBB"/>
        <path id="path" d="M22.9879 76.73L77.0129 88.085L79.2839 77.285L25.2589 65.925L22.9879 76.73ZM30.1369 50.861L80.1829 74.169L84.8449 64.16L34.7979 40.852L30.1369 50.861ZM43.9849 26.308L86.4129 61.639L93.4789 53.154L51.0509 17.824L43.9849 26.308ZM71.3719 0.192001L62.5119 6.782L95.4599 51.082L104.32 44.493L71.3719 0.192001ZM22 102L77 102L77 91L22 91L22 102Z" fill-rule="nonzero" fill="#F58025"/>
    </g>
</svg>
