<svg width="1em" height="1em" viewBox="0 0 104.32 123.808" fill="none" xmlns="http://www.w3.org/2000/svg">
	<desc>
			Created with Pixso.
	</desc>
	<defs/>
	<path id="polygon" d="M88 79.808L99 79.808L99 123.808L0 123.808L0 79.808L11 79.808L11 112.808L88 112.808L88 79.808Z" fill-rule="evenodd" fill="#BBBBBB"/>
	<path id="path" d="M22.9879 76.538L77.0129 87.893L79.2839 77.093L25.2589 65.733L22.9879 76.538ZM30.1369 50.669L80.1829 73.977L84.8449 63.968L34.7979 40.66L30.1369 50.669ZM43.9849 26.116L86.4129 61.447L93.4789 52.962L51.0509 17.632L43.9849 26.116ZM71.3719 0L62.5119 6.59L95.4599 50.89L104.32 44.301L71.3719 0ZM22 101.808L77 101.808L77 90.808L22 90.808L22 101.808Z" fill-rule="nonzero" fill="#F58025"/>
</svg>
